# Blender v2.81 (sub 16) OBJ File: 'chip.blend'
# www.blender.org
mtllib chip.mtl
o Cylinder
v 0.000000 -0.100000 -0.000001
v 0.000000 0.100000 -0.000001
v 0.000001 -0.100000 0.999999
v 0.000001 0.100000 1.000000
v -0.195090 -0.100000 0.980784
v -0.195090 0.100000 0.980785
v -0.382683 -0.100000 0.923879
v -0.382683 0.100000 0.923879
v -0.555570 -0.100000 0.831469
v -0.555570 0.100000 0.831469
v -0.707106 -0.100000 0.707106
v -0.707106 0.100000 0.707106
v -0.831469 -0.100000 0.555570
v -0.831469 0.100000 0.555570
v -0.923879 -0.100000 0.382683
v -0.923879 0.100000 0.382683
v -0.980785 -0.100000 0.195090
v -0.980785 0.100000 0.195090
v -1.000000 -0.100000 -0.000000
v -1.000000 0.100000 -0.000000
v -0.980785 -0.100000 -0.195090
v -0.980785 0.100000 -0.195090
v -0.923880 -0.100000 -0.382684
v -0.923880 0.100000 -0.382684
v -0.831470 -0.100000 -0.555571
v -0.831470 0.100000 -0.555571
v -0.707107 -0.100000 -0.707107
v -0.707107 0.100000 -0.707107
v -0.555570 -0.100000 -0.831470
v -0.555570 0.100000 -0.831470
v -0.382684 -0.100000 -0.923880
v -0.382684 0.100000 -0.923880
v -0.195091 -0.100000 -0.980786
v -0.195091 0.100000 -0.980786
v -0.000000 -0.100000 -1.000001
v -0.000000 0.100000 -1.000001
v 0.195090 -0.100000 -0.980786
v 0.195090 0.100000 -0.980786
v 0.382683 -0.100000 -0.923880
v 0.382683 0.100000 -0.923881
v 0.555571 -0.100000 -0.831470
v 0.555571 0.100000 -0.831470
v 0.707107 -0.100000 -0.707107
v 0.707107 0.100000 -0.707107
v 0.831470 -0.100000 -0.555571
v 0.831470 0.100000 -0.555571
v 0.923880 -0.100000 -0.382684
v 0.923880 0.100000 -0.382684
v 0.980786 -0.100000 -0.195091
v 0.980786 0.100000 -0.195091
v 1.000000 -0.100000 -0.000000
v 1.000000 0.100000 -0.000000
v 0.980785 -0.100000 0.195090
v 0.980785 0.100000 0.195090
v 0.923880 -0.100000 0.382683
v 0.923880 0.100000 0.382683
v 0.831469 -0.100000 0.555570
v 0.831470 0.100000 0.555570
v 0.707107 -0.100000 0.707107
v 0.707107 0.100000 0.707107
v 0.555570 -0.100000 0.831469
v 0.555570 0.100000 0.831469
v 0.382683 -0.100000 0.923879
v 0.382683 0.100000 0.923879
v 0.195089 -0.100000 0.980785
v 0.195089 0.100000 0.980785
vt 0.499843 0.502363
vt 0.496663 0.017013
vt 0.591411 0.025719
vt 0.499843 0.502498
vt 0.404115 0.026672
vt 0.498784 0.017140
vt 0.503671 0.020449
vt 0.502862 0.009943
vt 0.598728 0.019823
vt 0.597751 0.029739
vt 0.682640 0.052742
vt 0.313125 0.054491
vt 0.690997 0.048273
vt 0.688245 0.057112
vt 0.766845 0.097043
vt 0.229311 0.099526
vt 0.776049 0.094247
vt 0.771647 0.101657
vt 0.840788 0.156921
vt 0.155893 0.160047
vt 0.850517 0.155940
vt 0.844703 0.161593
vt 0.901630 0.230073
vt 0.095693 0.233728
vt 0.911451 0.230890
vt 0.904549 0.234517
vt 0.947030 0.313690
vt 0.051025 0.317738
vt 0.956439 0.316085
vt 0.948834 0.317494
vt 0.975246 0.404557
vt 0.023604 0.408848
vt 0.983713 0.408101
vt 0.975821 0.407192
vt 0.985192 0.499183
vt 0.014484 0.503557
vt 0.992233 0.503238
vt 0.984460 0.500034
vt 0.976487 0.593931
vt 0.024017 0.598226
vt 0.981790 0.597707
vt 0.974395 0.592395
vt 0.949464 0.685160
vt 0.051835 0.689215
vt 0.953098 0.687929
vt 0.945903 0.680782
vt 0.905163 0.769365
vt 0.096870 0.773030
vt 0.907586 0.771239
vt 0.900583 0.762893
vt 0.845285 0.843308
vt 0.157391 0.846447
vt 0.846724 0.844599
vt 0.840335 0.835274
vt 0.772132 0.904150
vt 0.231072 0.906648
vt 0.772492 0.904926
vt 0.767226 0.894766
vt 0.688515 0.949550
vt 0.315083 0.951316
vt 0.687590 0.949562
vt 0.683814 0.938813
vt 0.597649 0.977766
vt 0.406193 0.978738
vt 0.595321 0.976621
vt 0.593221 0.965663
vt 0.503022 0.987712
vt 0.500902 0.987857
vt 0.499324 0.985064
vt 0.498894 0.974273
vt 0.408275 0.979007
vt 0.595570 0.978325
vt 0.403326 0.974676
vt 0.404549 0.964519
vt 0.317046 0.951984
vt 0.686560 0.950506
vt 0.311003 0.945836
vt 0.313875 0.936771
vt 0.232841 0.907683
vt 0.770373 0.905472
vt 0.225956 0.899562
vt 0.230365 0.891929
vt 0.158898 0.847805
vt 0.843792 0.844950
vt 0.151549 0.837665
vt 0.157244 0.831774
vt 0.098056 0.774652
vt 0.903992 0.771269
vt 0.090700 0.762665
vt 0.097340 0.758696
vt 0.052655 0.691036
vt 0.948661 0.687259
vt 0.045755 0.677639
vt 0.053008 0.675976
vt 0.024439 0.600169
vt 0.976082 0.596149
vt 0.018422 0.585773
vt 0.026008 0.586437
vt 0.014493 0.505543
vt 0.985201 0.501440
vt 0.009798 0.490647
vt 0.017360 0.493628
vt 0.023199 0.410794
vt 0.975669 0.406771
vt 0.020222 0.396039
vt 0.027395 0.401217
vt 0.050222 0.319565
vt 0.947850 0.315781
vt 0.049196 0.305687
vt 0.055735 0.312805
vt 0.094523 0.235360
vt 0.902815 0.231967
vt 0.095344 0.222990
vt 0.101361 0.231678
vt 0.154401 0.161417
vt 0.842294 0.158549
vt 0.156680 0.150601
vt 0.162124 0.160276
vt 0.227554 0.100575
vt 0.768612 0.098349
vt 0.230909 0.091122
vt 0.235874 0.101557
vt 0.311170 0.055175
vt 0.684602 0.053680
vt 0.315364 0.046554
vt 0.319366 0.057244
vt 0.402038 0.026959
vt 0.593492 0.026259
vt 0.407159 0.019015
vt 0.409703 0.029755
vn 0.0000 -1.0000 0.0000
vn 0.0000 1.0000 0.0000
vn -0.0980 -0.0000 0.9952
vn -0.2903 -0.0000 0.9569
vn -0.4714 -0.0000 0.8819
vn -0.6344 0.0000 0.7730
vn -0.7730 0.0000 0.6344
vn -0.8819 0.0000 0.4714
vn -0.9569 0.0000 0.2903
vn -0.9952 0.0000 0.0980
vn -0.9952 0.0000 -0.0980
vn -0.9569 -0.0000 -0.2903
vn -0.8819 0.0000 -0.4714
vn -0.7730 0.0000 -0.6344
vn -0.6344 0.0000 -0.7730
vn -0.4714 0.0000 -0.8819
vn -0.2903 -0.0000 -0.9569
vn -0.0980 -0.0000 -0.9952
vn 0.0980 -0.0000 -0.9952
vn 0.2903 -0.0000 -0.9569
vn 0.4714 -0.0000 -0.8819
vn 0.6344 0.0000 -0.7730
vn 0.7730 -0.0000 -0.6344
vn 0.8819 -0.0000 -0.4714
vn 0.9569 0.0000 -0.2903
vn 0.9952 0.0000 -0.0980
vn 0.9952 0.0000 0.0980
vn 0.9569 0.0000 0.2903
vn 0.8819 0.0000 0.4714
vn 0.7730 -0.0000 0.6344
vn 0.6344 -0.0000 0.7730
vn 0.4714 -0.0000 0.8819
vn 0.2903 0.0000 0.9569
vn 0.0980 0.0000 0.9952
usemtl Material
s off
f 1/1/1 3/2/1 5/3/1
f 2/4/2 6/5/2 4/6/2
f 3/7/3 4/8/3 6/9/3 5/10/3
f 1/1/1 5/3/1 7/11/1
f 2/4/2 8/12/2 6/5/2
f 5/10/4 6/9/4 8/13/4 7/14/4
f 1/1/1 7/11/1 9/15/1
f 2/4/2 10/16/2 8/12/2
f 7/14/5 8/13/5 10/17/5 9/18/5
f 1/1/1 9/15/1 11/19/1
f 2/4/2 12/20/2 10/16/2
f 9/18/6 10/17/6 12/21/6 11/22/6
f 1/1/1 11/19/1 13/23/1
f 2/4/2 14/24/2 12/20/2
f 11/22/7 12/21/7 14/25/7 13/26/7
f 1/1/1 13/23/1 15/27/1
f 2/4/2 16/28/2 14/24/2
f 13/26/8 14/25/8 16/29/8 15/30/8
f 1/1/1 15/27/1 17/31/1
f 2/4/2 18/32/2 16/28/2
f 15/30/9 16/29/9 18/33/9 17/34/9
f 1/1/1 17/31/1 19/35/1
f 2/4/2 20/36/2 18/32/2
f 17/34/10 18/33/10 20/37/10 19/38/10
f 1/1/1 19/35/1 21/39/1
f 2/4/2 22/40/2 20/36/2
f 19/38/11 20/37/11 22/41/11 21/42/11
f 1/1/1 21/39/1 23/43/1
f 2/4/2 24/44/2 22/40/2
f 21/42/12 22/41/12 24/45/12 23/46/12
f 1/1/1 23/43/1 25/47/1
f 2/4/2 26/48/2 24/44/2
f 23/46/13 24/45/13 26/49/13 25/50/13
f 1/1/1 25/47/1 27/51/1
f 2/4/2 28/52/2 26/48/2
f 25/50/14 26/49/14 28/53/14 27/54/14
f 1/1/1 27/51/1 29/55/1
f 2/4/2 30/56/2 28/52/2
f 27/54/15 28/53/15 30/57/15 29/58/15
f 1/1/1 29/55/1 31/59/1
f 2/4/2 32/60/2 30/56/2
f 29/58/16 30/57/16 32/61/16 31/62/16
f 1/1/1 31/59/1 33/63/1
f 2/4/2 34/64/2 32/60/2
f 31/62/17 32/61/17 34/65/17 33/66/17
f 1/1/1 33/63/1 35/67/1
f 2/4/2 36/68/2 34/64/2
f 33/66/18 34/65/18 36/69/18 35/70/18
f 1/1/1 35/67/1 37/71/1
f 2/4/2 38/72/2 36/68/2
f 35/70/19 36/69/19 38/73/19 37/74/19
f 1/1/1 37/71/1 39/75/1
f 2/4/2 40/76/2 38/72/2
f 37/74/20 38/73/20 40/77/20 39/78/20
f 1/1/1 39/75/1 41/79/1
f 2/4/2 42/80/2 40/76/2
f 39/78/21 40/77/21 42/81/21 41/82/21
f 1/1/1 41/79/1 43/83/1
f 2/4/2 44/84/2 42/80/2
f 41/82/22 42/81/22 44/85/22 43/86/22
f 1/1/1 43/83/1 45/87/1
f 2/4/2 46/88/2 44/84/2
f 43/86/23 44/85/23 46/89/23 45/90/23
f 1/1/1 45/87/1 47/91/1
f 2/4/2 48/92/2 46/88/2
f 45/90/24 46/89/24 48/93/24 47/94/24
f 1/1/1 47/91/1 49/95/1
f 2/4/2 50/96/2 48/92/2
f 47/94/25 48/93/25 50/97/25 49/98/25
f 1/1/1 49/95/1 51/99/1
f 2/4/2 52/100/2 50/96/2
f 49/98/26 50/97/26 52/101/26 51/102/26
f 1/1/1 51/99/1 53/103/1
f 2/4/2 54/104/2 52/100/2
f 51/102/27 52/101/27 54/105/27 53/106/27
f 1/1/1 53/103/1 55/107/1
f 2/4/2 56/108/2 54/104/2
f 53/106/28 54/105/28 56/109/28 55/110/28
f 1/1/1 55/107/1 57/111/1
f 2/4/2 58/112/2 56/108/2
f 55/110/29 56/109/29 58/113/29 57/114/29
f 1/1/1 57/111/1 59/115/1
f 2/4/2 60/116/2 58/112/2
f 57/114/30 58/113/30 60/117/30 59/118/30
f 1/1/1 59/115/1 61/119/1
f 2/4/2 62/120/2 60/116/2
f 59/118/31 60/117/31 62/121/31 61/122/31
f 1/1/1 61/119/1 63/123/1
f 2/4/2 64/124/2 62/120/2
f 61/122/32 62/121/32 64/125/32 63/126/32
f 1/1/1 63/123/1 65/127/1
f 2/4/2 66/128/2 64/124/2
f 63/126/33 64/125/33 66/129/33 65/130/33
f 1/1/1 65/127/1 3/2/1
f 2/4/2 4/6/2 66/128/2
f 65/130/34 66/129/34 4/8/34 3/7/34
