# Blender v2.74 (sub 0) OBJ File: ''
# www.blender.org
mtllib rupee.mtl
o Cube_Cube.002
v -0.600000 0.000000 0.000000
v 0.600000 0.000000 0.000000
v -0.240000 0.000000 -0.400000
v 0.240000 0.000000 -0.400000
v 0.240000 0.000000 0.400000
v -0.240000 0.000000 0.400000
v -0.144000 0.175000 0.240000
v -0.360000 0.175000 0.000000
v -0.144000 0.175000 -0.240000
v 0.144000 0.175000 -0.240000
v 0.360000 0.175000 0.000000
v 0.144000 0.175000 0.240000
v 0.360000 -0.175000 0.000000
v 0.144000 -0.175000 -0.240000
v 0.144000 -0.175000 0.240000
v -0.144000 -0.175000 -0.240000
v -0.360000 -0.175000 0.000000
v -0.144000 -0.175000 0.240000
vt 0.000324 0.588054
vt 0.329060 0.588054
vt 0.230984 0.730431
vt 0.308202 0.294189
vt 0.132272 0.587406
vt 0.132272 0.294189
vt 0.916790 0.865702
vt 0.858147 0.999676
vt 0.682217 0.999676
vt 0.658444 0.730431
vt 0.329708 0.730431
vt 0.427784 0.588054
vt 0.622925 0.865054
vt 0.329708 0.865054
vt 0.388352 0.731080
vt 0.132272 0.293541
vt 0.132272 0.000324
vt 0.308202 0.293541
vt 0.000324 0.873457
vt 0.033743 0.731080
vt 0.230984 0.731080
vt 0.769533 0.329708
vt 0.736115 0.472085
vt 0.538873 0.472085
vt 0.916790 0.731080
vt 0.858147 0.865054
vt 0.682216 0.865054
vt 0.726200 0.329060
vt 0.583823 0.295641
vt 0.583823 0.098400
vt 0.583175 0.000324
vt 0.583175 0.329060
vt 0.440798 0.230984
vt 0.329708 0.999676
vt 0.388352 0.865702
vt 0.564281 0.865702
vt 0.726849 0.329060
vt 0.726849 0.000324
vt 0.869226 0.098400
vt 0.770182 0.329708
vt 0.912559 0.363127
vt 0.912559 0.560368
vt 0.033743 0.730431
vt 0.308202 0.587406
vt 0.440149 0.440798
vt 0.000324 0.440798
vt 0.623573 0.865702
vt 0.625025 0.588054
vt 0.564282 0.731080
vt 0.000324 0.146932
vt 0.308202 0.000324
vt 0.440149 0.146932
vt 0.329060 0.873457
vt 0.440798 0.329708
vt 0.623573 0.731080
vt 0.726200 0.000324
vt 0.440798 0.033743
vt 0.622925 0.999676
vt 0.869226 0.295641
vt 0.770182 0.658444
vn 0.520500 -0.713900 -0.468500
vn 0.000000 1.000000 -0.000000
vn 0.000000 0.674800 0.738000
vn -0.520500 -0.713900 0.468500
vn 0.000000 0.674800 -0.738000
vn 0.000000 -1.000000 0.000000
vn 0.520500 -0.713900 0.468500
vn -0.520500 -0.713900 -0.468500
vn 0.000000 -0.674800 -0.738000
vn 0.520500 0.713900 -0.468500
vn 0.520500 0.713900 0.468500
vn 0.000000 -0.674800 0.738000
vn -0.520500 0.713900 -0.468500
vn -0.520500 0.713900 0.468500
usemtl None
s off
f 4/1/1 2/2/1 13/3/1
f 12/4/2 9/5/2 7/6/2
f 5/7/3 12/8/3 7/9/3
f 6/10/4 1/11/4 17/12/4
f 4/13/5 3/14/5 9/15/5
f 18/16/6 16/17/6 15/18/6
f 5/19/7 15/20/7 13/21/7
f 3/22/8 16/23/8 17/24/8
f 4/25/9 14/26/9 16/27/9
f 4/28/10 10/29/10 11/30/10
f 5/31/11 2/32/11 11/33/11
f 6/34/12 18/35/12 15/36/12
f 3/37/13 1/38/13 8/39/13
f 6/40/14 7/41/14 8/42/14
f 14/43/1 4/1/1 13/3/1
f 10/44/2 12/4/2 11/45/2
f 9/5/2 8/46/2 7/6/2
f 12/4/2 10/44/2 9/5/2
f 6/47/3 5/7/3 7/9/3
f 18/48/4 6/10/4 17/12/4
f 10/49/5 4/13/5 9/15/5
f 16/17/6 18/16/6 17/50/6
f 14/51/6 13/52/6 15/18/6
f 15/18/6 16/17/6 14/51/6
f 2/53/7 5/19/7 13/21/7
f 1/54/8 3/22/8 17/24/8
f 3/55/9 4/25/9 16/27/9
f 2/56/10 4/28/10 11/30/10
f 12/57/11 5/31/11 11/33/11
f 5/58/12 6/34/12 15/36/12
f 9/59/13 3/37/13 8/39/13
f 1/60/14 6/40/14 8/42/14
