# Blender v2.78 (sub 0) OBJ File: ''
# www.blender.org
mtllib rupee.mtl
o Cube_Cube.002
v 0.399913 0.018926 0.239398
v 0.000046 0.024339 0.599506
v 0.004053 -0.160206 0.366800
v -0.243950 0.175137 0.137027
v 0.235901 0.174483 -0.151221
v -0.243972 0.163454 -0.150736
v -0.399876 0.000545 0.240206
v -0.399913 -0.018926 -0.239398
v -0.000046 -0.024339 -0.599506
v 0.003997 -0.189413 -0.352607
v 0.399876 -0.000545 -0.240206
v -0.235923 -0.186165 -0.136542
v 0.243950 -0.175137 -0.137027
v -0.235901 -0.174483 0.151221
v 0.243972 -0.163454 0.150736
v 0.235923 0.186165 0.136542
v -0.003997 0.189413 0.352607
v -0.004053 0.160206 -0.366800
vt 0.0003 0.5881
vt 0.3291 0.5881
vt 0.2310 0.7304
vt 0.3082 0.2942
vt 0.1323 0.5874
vt 0.1323 0.2942
vt 0.9168 0.8657
vt 0.8581 0.9997
vt 0.6822 0.9997
vt 0.6584 0.7304
vt 0.3297 0.7304
vt 0.4278 0.5881
vt 0.6229 0.8651
vt 0.3297 0.8651
vt 0.3884 0.7311
vt 0.1323 0.2935
vt 0.1323 0.0003
vt 0.3082 0.2935
vt 0.0003 0.8735
vt 0.0337 0.7311
vt 0.2310 0.7311
vt 0.7695 0.3297
vt 0.7361 0.4721
vt 0.5389 0.4721
vt 0.9168 0.7311
vt 0.8581 0.8651
vt 0.6822 0.8651
vt 0.7262 0.3291
vt 0.5838 0.2956
vt 0.5838 0.0984
vt 0.5832 0.0003
vt 0.5832 0.3291
vt 0.4408 0.2310
vt 0.3297 0.9997
vt 0.3884 0.8657
vt 0.5643 0.8657
vt 0.7268 0.3291
vt 0.7268 0.0003
vt 0.8692 0.0984
vt 0.7702 0.3297
vt 0.9126 0.3631
vt 0.9126 0.5604
vt 0.0337 0.7304
vt 0.3082 0.5874
vt 0.4401 0.4408
vt 0.0003 0.4408
vt 0.6236 0.8657
vt 0.6250 0.5881
vt 0.5643 0.7311
vt 0.0003 0.1469
vt 0.3082 0.0003
vt 0.4401 0.1469
vt 0.3291 0.8735
vt 0.4408 0.3297
vt 0.6236 0.7311
vt 0.7262 0.0003
vt 0.4408 0.0337
vt 0.6229 0.9997
vt 0.8692 0.2956
vt 0.7702 0.6584
vn 0.4848 -0.6812 0.5486
vn -0.0230 0.9989 -0.0406
vn -0.7534 0.6571 -0.0266
vn -0.4520 -0.7450 -0.4907
vn 0.7223 0.6910 -0.0281
vn 0.0230 -0.9989 0.0406
vn -0.4519 -0.7027 0.5495
vn 0.4847 -0.7234 -0.4916
vn 0.7534 -0.6571 0.0266
vn 0.4520 0.7450 0.4907
vn -0.4847 0.7234 0.4916
vn -0.7223 -0.6910 0.0281
vn 0.4519 0.7027 -0.5495
vn -0.4848 0.6812 -0.5486
usemtl None
s 1
f 1/1/1 2/2/1 3/3/1
f 4/4/2 5/5/2 6/6/2
f 7/7/3 4/8/3 6/9/3
f 8/10/4 9/11/4 10/12/4
f 1/13/5 11/14/5 5/15/5
f 12/16/6 13/17/6 14/18/6
f 7/19/7 14/20/7 3/21/7
f 11/22/8 13/23/8 10/24/8
f 1/25/9 15/26/9 13/27/9
f 1/28/10 16/29/10 17/30/10
f 7/31/11 2/32/11 17/33/11
f 8/34/12 12/35/12 14/36/12
f 11/37/13 9/38/13 18/39/13
f 8/40/14 6/41/14 18/42/14
f 15/43/1 1/1/1 3/3/1
f 16/44/2 4/4/2 17/45/2
f 5/5/2 18/46/2 6/6/2
f 4/4/2 16/44/2 5/5/2
f 8/47/3 7/7/3 6/9/3
f 12/48/4 8/10/4 10/12/4
f 16/49/5 1/13/5 5/15/5
f 13/17/6 12/16/6 10/50/6
f 15/51/6 3/52/6 14/18/6
f 14/18/6 13/17/6 15/51/6
f 2/53/7 7/19/7 3/21/7
f 9/54/8 11/22/8 10/24/8
f 11/55/9 1/25/9 13/27/9
f 2/56/10 1/28/10 17/30/10
f 4/57/11 7/31/11 17/33/11
f 7/58/12 8/34/12 14/36/12
f 5/59/13 11/37/13 18/39/13
f 9/60/14 8/40/14 18/42/14